<mxfile host="app.diagrams.net" modified="2024-07-10T15:35:21.737Z" agent="Mozilla/5.0 (Windows NT 10.0; Win64; x64) AppleWebKit/537.36 (KHTML, like Gecko) Chrome/126.0.0.0 Safari/537.36 Edg/126.0.0.0" etag="Yq9dEN8asRqBpWDeRmUR" version="24.6.4" type="onedrive">
  <diagram name="ページ1" id="z7VYQlCJtvBqK-9NRSK6">
    <mxGraphModel grid="1" page="0" gridSize="10" guides="1" tooltips="1" connect="1" arrows="1" fold="1" pageScale="1" pageWidth="827" pageHeight="1169" math="0" shadow="0">
      <root>
        <mxCell id="0" />
        <mxCell id="1" parent="0" />
        <mxCell id="D4o3qx-jDcPHW6__n_jF-21" style="edgeStyle=none;curved=1;rounded=0;orthogonalLoop=1;jettySize=auto;html=1;exitX=0.5;exitY=1;exitDx=0;exitDy=0;entryX=0.5;entryY=0;entryDx=0;entryDy=0;fontSize=12;startSize=8;endSize=8;" edge="1" parent="1" source="D4o3qx-jDcPHW6__n_jF-1" target="D4o3qx-jDcPHW6__n_jF-2">
          <mxGeometry relative="1" as="geometry" />
        </mxCell>
        <mxCell id="D4o3qx-jDcPHW6__n_jF-1" value="&lt;div&gt;関数&lt;/div&gt;linear_search(n:int)&lt;div&gt;開始&lt;/div&gt;" style="rounded=0;whiteSpace=wrap;html=1;" vertex="1" parent="1">
          <mxGeometry x="160" y="-40" width="120" height="60" as="geometry" />
        </mxCell>
        <mxCell id="D4o3qx-jDcPHW6__n_jF-22" style="edgeStyle=none;curved=1;rounded=0;orthogonalLoop=1;jettySize=auto;html=1;exitX=0.5;exitY=1;exitDx=0;exitDy=0;fontSize=12;startSize=8;endSize=8;" edge="1" parent="1" source="D4o3qx-jDcPHW6__n_jF-2" target="D4o3qx-jDcPHW6__n_jF-3">
          <mxGeometry relative="1" as="geometry" />
        </mxCell>
        <mxCell id="D4o3qx-jDcPHW6__n_jF-2" value="&lt;div&gt;グローバル変数&lt;/div&gt;tlist, max, max_list, d&lt;div&gt;の定義&lt;/div&gt;" style="rounded=1;whiteSpace=wrap;html=1;" vertex="1" parent="1">
          <mxGeometry x="159" y="40" width="120" height="60" as="geometry" />
        </mxCell>
        <mxCell id="D4o3qx-jDcPHW6__n_jF-23" style="edgeStyle=none;curved=1;rounded=0;orthogonalLoop=1;jettySize=auto;html=1;exitX=0.5;exitY=1;exitDx=0;exitDy=0;entryX=0.5;entryY=0;entryDx=0;entryDy=0;fontSize=12;startSize=8;endSize=8;" edge="1" parent="1" source="D4o3qx-jDcPHW6__n_jF-3" target="D4o3qx-jDcPHW6__n_jF-4">
          <mxGeometry relative="1" as="geometry" />
        </mxCell>
        <mxCell id="D4o3qx-jDcPHW6__n_jF-3" value="総距離 sum = 0" style="rounded=1;whiteSpace=wrap;html=1;" vertex="1" parent="1">
          <mxGeometry x="160" y="120" width="120" height="60" as="geometry" />
        </mxCell>
        <mxCell id="D4o3qx-jDcPHW6__n_jF-24" style="edgeStyle=none;curved=1;rounded=0;orthogonalLoop=1;jettySize=auto;html=1;exitX=0.5;exitY=1;exitDx=0;exitDy=0;entryX=0.5;entryY=0;entryDx=0;entryDy=0;fontSize=12;startSize=8;endSize=8;" edge="1" parent="1" source="D4o3qx-jDcPHW6__n_jF-4" target="D4o3qx-jDcPHW6__n_jF-5">
          <mxGeometry relative="1" as="geometry" />
        </mxCell>
        <mxCell id="D4o3qx-jDcPHW6__n_jF-4" value="&lt;div&gt;&lt;span style=&quot;background-color: initial;&quot;&gt;cList = tlist.head&lt;/span&gt;&lt;br&gt;&lt;/div&gt;" style="rounded=1;whiteSpace=wrap;html=1;" vertex="1" parent="1">
          <mxGeometry x="160" y="200" width="120" height="60" as="geometry" />
        </mxCell>
        <mxCell id="D4o3qx-jDcPHW6__n_jF-25" style="edgeStyle=none;curved=1;rounded=0;orthogonalLoop=1;jettySize=auto;html=1;exitX=0.5;exitY=1;exitDx=0;exitDy=0;entryX=0.5;entryY=0;entryDx=0;entryDy=0;fontSize=12;startSize=8;endSize=8;" edge="1" parent="1" source="D4o3qx-jDcPHW6__n_jF-5" target="D4o3qx-jDcPHW6__n_jF-6">
          <mxGeometry relative="1" as="geometry" />
        </mxCell>
        <mxCell id="D4o3qx-jDcPHW6__n_jF-5" value="start = cList.num" style="rounded=1;whiteSpace=wrap;html=1;" vertex="1" parent="1">
          <mxGeometry x="160" y="280" width="120" height="60" as="geometry" />
        </mxCell>
        <mxCell id="D4o3qx-jDcPHW6__n_jF-26" style="edgeStyle=none;curved=1;rounded=0;orthogonalLoop=1;jettySize=auto;html=1;exitX=0.5;exitY=1;exitDx=0;exitDy=0;fontSize=12;startSize=8;endSize=8;" edge="1" parent="1" source="D4o3qx-jDcPHW6__n_jF-6" target="D4o3qx-jDcPHW6__n_jF-7">
          <mxGeometry relative="1" as="geometry" />
        </mxCell>
        <mxCell id="D4o3qx-jDcPHW6__n_jF-6" value="flag = 0" style="rounded=1;whiteSpace=wrap;html=1;" vertex="1" parent="1">
          <mxGeometry x="160" y="360" width="120" height="60" as="geometry" />
        </mxCell>
        <mxCell id="D4o3qx-jDcPHW6__n_jF-7" value="while&lt;div&gt;True&lt;/div&gt;" style="rhombus;whiteSpace=wrap;html=1;" vertex="1" parent="1">
          <mxGeometry x="144" y="440" width="150" height="80" as="geometry" />
        </mxCell>
        <mxCell id="D4o3qx-jDcPHW6__n_jF-10" style="edgeStyle=none;curved=1;rounded=0;orthogonalLoop=1;jettySize=auto;html=1;exitX=0.5;exitY=1;exitDx=0;exitDy=0;entryX=0.5;entryY=0;entryDx=0;entryDy=0;fontSize=12;startSize=8;endSize=8;" edge="1" parent="1" source="D4o3qx-jDcPHW6__n_jF-8" target="D4o3qx-jDcPHW6__n_jF-9">
          <mxGeometry relative="1" as="geometry" />
        </mxCell>
        <mxCell id="D4o3qx-jDcPHW6__n_jF-8" value="if&lt;div&gt;flag == 1&lt;/div&gt;" style="rhombus;whiteSpace=wrap;html=1;" vertex="1" parent="1">
          <mxGeometry x="49.75" y="540" width="139.5" height="80" as="geometry" />
        </mxCell>
        <mxCell id="D4o3qx-jDcPHW6__n_jF-9" value="break" style="rounded=1;whiteSpace=wrap;html=1;" vertex="1" parent="1">
          <mxGeometry x="59.5" y="640" width="120" height="60" as="geometry" />
        </mxCell>
        <mxCell id="D4o3qx-jDcPHW6__n_jF-17" style="edgeStyle=none;curved=1;rounded=0;orthogonalLoop=1;jettySize=auto;html=1;exitX=0.5;exitY=1;exitDx=0;exitDy=0;entryX=0.5;entryY=0;entryDx=0;entryDy=0;fontSize=12;startSize=8;endSize=8;" edge="1" parent="1" source="D4o3qx-jDcPHW6__n_jF-14" target="D4o3qx-jDcPHW6__n_jF-15">
          <mxGeometry relative="1" as="geometry" />
        </mxCell>
        <mxCell id="D4o3qx-jDcPHW6__n_jF-14" value="if&amp;nbsp;&lt;div&gt;cList.next.num == start&lt;/div&gt;" style="rhombus;whiteSpace=wrap;html=1;" vertex="1" parent="1">
          <mxGeometry x="250" y="540" width="139.5" height="80" as="geometry" />
        </mxCell>
        <mxCell id="D4o3qx-jDcPHW6__n_jF-15" value="flag = 1" style="rounded=1;whiteSpace=wrap;html=1;" vertex="1" parent="1">
          <mxGeometry x="259.75" y="640" width="120" height="60" as="geometry" />
        </mxCell>
        <mxCell id="D4o3qx-jDcPHW6__n_jF-32" style="edgeStyle=none;curved=1;rounded=0;orthogonalLoop=1;jettySize=auto;html=1;exitX=0.5;exitY=1;exitDx=0;exitDy=0;fontSize=12;startSize=8;endSize=8;" edge="1" parent="1" source="D4o3qx-jDcPHW6__n_jF-9" target="D4o3qx-jDcPHW6__n_jF-9">
          <mxGeometry relative="1" as="geometry" />
        </mxCell>
        <mxCell id="D4o3qx-jDcPHW6__n_jF-33" value="" style="endArrow=none;html=1;rounded=0;fontSize=12;startSize=8;endSize=8;curved=1;entryX=0;entryY=0.5;entryDx=0;entryDy=0;" edge="1" parent="1" target="D4o3qx-jDcPHW6__n_jF-7">
          <mxGeometry width="50" height="50" relative="1" as="geometry">
            <mxPoint x="120" y="480" as="sourcePoint" />
            <mxPoint x="200" y="680" as="targetPoint" />
          </mxGeometry>
        </mxCell>
        <mxCell id="D4o3qx-jDcPHW6__n_jF-35" value="" style="endArrow=none;html=1;rounded=0;fontSize=12;startSize=8;endSize=8;curved=1;entryX=1;entryY=0.5;entryDx=0;entryDy=0;" edge="1" parent="1" target="D4o3qx-jDcPHW6__n_jF-7">
          <mxGeometry width="50" height="50" relative="1" as="geometry">
            <mxPoint x="320" y="480" as="sourcePoint" />
            <mxPoint x="310" y="470" as="targetPoint" />
          </mxGeometry>
        </mxCell>
        <mxCell id="D4o3qx-jDcPHW6__n_jF-36" value="" style="endArrow=classic;html=1;rounded=0;fontSize=12;startSize=8;endSize=8;curved=1;entryX=0.5;entryY=0;entryDx=0;entryDy=0;" edge="1" parent="1" target="D4o3qx-jDcPHW6__n_jF-8">
          <mxGeometry width="50" height="50" relative="1" as="geometry">
            <mxPoint x="120" y="480" as="sourcePoint" />
            <mxPoint x="200" y="680" as="targetPoint" />
          </mxGeometry>
        </mxCell>
        <mxCell id="D4o3qx-jDcPHW6__n_jF-37" value="" style="endArrow=classic;html=1;rounded=0;fontSize=12;startSize=8;endSize=8;curved=1;entryX=0.5;entryY=0;entryDx=0;entryDy=0;" edge="1" parent="1" target="D4o3qx-jDcPHW6__n_jF-14">
          <mxGeometry width="50" height="50" relative="1" as="geometry">
            <mxPoint x="320" y="480" as="sourcePoint" />
            <mxPoint x="200" y="680" as="targetPoint" />
          </mxGeometry>
        </mxCell>
        <mxCell id="D4o3qx-jDcPHW6__n_jF-44" style="edgeStyle=none;curved=1;rounded=0;orthogonalLoop=1;jettySize=auto;html=1;exitX=0.5;exitY=1;exitDx=0;exitDy=0;entryX=0.5;entryY=0;entryDx=0;entryDy=0;fontSize=12;startSize=8;endSize=8;" edge="1" parent="1" source="D4o3qx-jDcPHW6__n_jF-41" target="D4o3qx-jDcPHW6__n_jF-42">
          <mxGeometry relative="1" as="geometry" />
        </mxCell>
        <mxCell id="D4o3qx-jDcPHW6__n_jF-41" value="sum += cList.dis" style="rounded=1;whiteSpace=wrap;html=1;" vertex="1" parent="1">
          <mxGeometry x="160" y="720" width="120" height="60" as="geometry" />
        </mxCell>
        <mxCell id="D4o3qx-jDcPHW6__n_jF-45" style="edgeStyle=none;curved=1;rounded=0;orthogonalLoop=1;jettySize=auto;html=1;exitX=0.5;exitY=1;exitDx=0;exitDy=0;fontSize=12;startSize=8;endSize=8;" edge="1" parent="1" source="D4o3qx-jDcPHW6__n_jF-42" target="D4o3qx-jDcPHW6__n_jF-43">
          <mxGeometry relative="1" as="geometry" />
        </mxCell>
        <UserObject label="cList = cList.next" link="cList = cList.next" id="D4o3qx-jDcPHW6__n_jF-42">
          <mxCell style="rounded=1;whiteSpace=wrap;html=1;" vertex="1" parent="1">
            <mxGeometry x="160" y="800" width="120" height="60" as="geometry" />
          </mxCell>
        </UserObject>
        <mxCell id="D4o3qx-jDcPHW6__n_jF-69" style="edgeStyle=none;curved=1;rounded=0;orthogonalLoop=1;jettySize=auto;html=1;exitX=0.5;exitY=1;exitDx=0;exitDy=0;entryX=0.5;entryY=0;entryDx=0;entryDy=0;fontSize=12;startSize=8;endSize=8;" edge="1" parent="1" source="D4o3qx-jDcPHW6__n_jF-43" target="D4o3qx-jDcPHW6__n_jF-65">
          <mxGeometry relative="1" as="geometry" />
        </mxCell>
        <mxCell id="D4o3qx-jDcPHW6__n_jF-43" value="pre = sum // n" style="rounded=1;whiteSpace=wrap;html=1;" vertex="1" parent="1">
          <mxGeometry x="159" y="880" width="120" height="60" as="geometry" />
        </mxCell>
        <mxCell id="D4o3qx-jDcPHW6__n_jF-46" value="" style="endArrow=none;html=1;rounded=0;fontSize=12;startSize=8;endSize=8;curved=1;entryX=0.5;entryY=1;entryDx=0;entryDy=0;" edge="1" parent="1" target="D4o3qx-jDcPHW6__n_jF-9">
          <mxGeometry width="50" height="50" relative="1" as="geometry">
            <mxPoint x="120" y="910" as="sourcePoint" />
            <mxPoint x="270" y="810" as="targetPoint" />
          </mxGeometry>
        </mxCell>
        <mxCell id="D4o3qx-jDcPHW6__n_jF-47" value="" style="endArrow=classic;html=1;rounded=0;fontSize=12;startSize=8;endSize=8;curved=1;entryX=0;entryY=0.5;entryDx=0;entryDy=0;" edge="1" parent="1" target="D4o3qx-jDcPHW6__n_jF-43">
          <mxGeometry width="50" height="50" relative="1" as="geometry">
            <mxPoint x="120" y="910" as="sourcePoint" />
            <mxPoint x="270" y="810" as="targetPoint" />
          </mxGeometry>
        </mxCell>
        <mxCell id="D4o3qx-jDcPHW6__n_jF-48" value="" style="endArrow=none;html=1;rounded=0;fontSize=12;startSize=8;endSize=8;curved=1;entryX=0.5;entryY=1;entryDx=0;entryDy=0;" edge="1" parent="1" target="D4o3qx-jDcPHW6__n_jF-15">
          <mxGeometry width="50" height="50" relative="1" as="geometry">
            <mxPoint x="320" y="710" as="sourcePoint" />
            <mxPoint x="270" y="730" as="targetPoint" />
          </mxGeometry>
        </mxCell>
        <mxCell id="D4o3qx-jDcPHW6__n_jF-52" value="" style="endArrow=none;html=1;rounded=0;fontSize=12;startSize=8;endSize=8;curved=1;" edge="1" parent="1">
          <mxGeometry width="50" height="50" relative="1" as="geometry">
            <mxPoint x="220" y="710" as="sourcePoint" />
            <mxPoint x="320" y="710" as="targetPoint" />
          </mxGeometry>
        </mxCell>
        <mxCell id="D4o3qx-jDcPHW6__n_jF-53" value="" style="endArrow=classic;html=1;rounded=0;fontSize=12;startSize=8;endSize=8;curved=1;entryX=0.5;entryY=0;entryDx=0;entryDy=0;" edge="1" parent="1" target="D4o3qx-jDcPHW6__n_jF-41">
          <mxGeometry width="50" height="50" relative="1" as="geometry">
            <mxPoint x="220" y="710" as="sourcePoint" />
            <mxPoint x="270" y="730" as="targetPoint" />
          </mxGeometry>
        </mxCell>
        <mxCell id="D4o3qx-jDcPHW6__n_jF-55" value="" style="endArrow=none;html=1;rounded=0;fontSize=12;startSize=8;endSize=8;curved=1;entryX=1;entryY=0.5;entryDx=0;entryDy=0;" edge="1" parent="1" target="D4o3qx-jDcPHW6__n_jF-14">
          <mxGeometry width="50" height="50" relative="1" as="geometry">
            <mxPoint x="420" y="580" as="sourcePoint" />
            <mxPoint x="240" y="740" as="targetPoint" />
          </mxGeometry>
        </mxCell>
        <mxCell id="D4o3qx-jDcPHW6__n_jF-56" value="" style="endArrow=none;html=1;rounded=0;fontSize=12;startSize=8;endSize=8;curved=1;" edge="1" parent="1">
          <mxGeometry width="50" height="50" relative="1" as="geometry">
            <mxPoint x="420" y="910" as="sourcePoint" />
            <mxPoint x="420" y="580" as="targetPoint" />
          </mxGeometry>
        </mxCell>
        <mxCell id="D4o3qx-jDcPHW6__n_jF-57" value="" style="endArrow=classic;html=1;rounded=0;fontSize=12;startSize=8;endSize=8;curved=1;" edge="1" parent="1">
          <mxGeometry width="50" height="50" relative="1" as="geometry">
            <mxPoint x="420" y="910" as="sourcePoint" />
            <mxPoint x="280" y="910" as="targetPoint" />
          </mxGeometry>
        </mxCell>
        <mxCell id="D4o3qx-jDcPHW6__n_jF-58" value="" style="endArrow=none;html=1;rounded=0;fontSize=12;startSize=8;endSize=8;curved=1;entryX=0;entryY=0.5;entryDx=0;entryDy=0;" edge="1" parent="1" target="D4o3qx-jDcPHW6__n_jF-8">
          <mxGeometry width="50" height="50" relative="1" as="geometry">
            <mxPoint x="20" y="580" as="sourcePoint" />
            <mxPoint x="240" y="740" as="targetPoint" />
          </mxGeometry>
        </mxCell>
        <mxCell id="D4o3qx-jDcPHW6__n_jF-59" value="" style="endArrow=none;html=1;rounded=0;fontSize=12;startSize=8;endSize=8;curved=1;" edge="1" parent="1">
          <mxGeometry width="50" height="50" relative="1" as="geometry">
            <mxPoint x="20" y="900" as="sourcePoint" />
            <mxPoint x="20" y="580" as="targetPoint" />
          </mxGeometry>
        </mxCell>
        <mxCell id="D4o3qx-jDcPHW6__n_jF-60" value="" style="endArrow=classic;html=1;rounded=0;fontSize=12;startSize=8;endSize=8;curved=1;" edge="1" parent="1">
          <mxGeometry width="50" height="50" relative="1" as="geometry">
            <mxPoint x="20" y="900" as="sourcePoint" />
            <mxPoint x="159" y="900" as="targetPoint" />
          </mxGeometry>
        </mxCell>
        <mxCell id="D4o3qx-jDcPHW6__n_jF-61" value="False" style="text;html=1;align=center;verticalAlign=middle;resizable=0;points=[];autosize=1;strokeColor=none;fillColor=none;fontSize=16;" vertex="1" parent="1">
          <mxGeometry x="374" y="541" width="60" height="30" as="geometry" />
        </mxCell>
        <mxCell id="D4o3qx-jDcPHW6__n_jF-62" value="False" style="text;html=1;align=center;verticalAlign=middle;resizable=0;points=[];autosize=1;strokeColor=none;fillColor=none;fontSize=16;" vertex="1" parent="1">
          <mxGeometry x="10" y="541" width="60" height="30" as="geometry" />
        </mxCell>
        <mxCell id="D4o3qx-jDcPHW6__n_jF-63" value="True" style="text;html=1;align=center;verticalAlign=middle;resizable=0;points=[];autosize=1;strokeColor=none;fillColor=none;fontSize=16;" vertex="1" parent="1">
          <mxGeometry x="114" y="611" width="60" height="30" as="geometry" />
        </mxCell>
        <mxCell id="D4o3qx-jDcPHW6__n_jF-64" value="True" style="text;html=1;align=center;verticalAlign=middle;resizable=0;points=[];autosize=1;strokeColor=none;fillColor=none;fontSize=16;" vertex="1" parent="1">
          <mxGeometry x="329.5" y="611" width="60" height="30" as="geometry" />
        </mxCell>
        <mxCell id="D4o3qx-jDcPHW6__n_jF-70" style="edgeStyle=none;curved=1;rounded=0;orthogonalLoop=1;jettySize=auto;html=1;exitX=0.5;exitY=1;exitDx=0;exitDy=0;entryX=0.5;entryY=0;entryDx=0;entryDy=0;fontSize=12;startSize=8;endSize=8;" edge="1" parent="1" source="D4o3qx-jDcPHW6__n_jF-65" target="D4o3qx-jDcPHW6__n_jF-66">
          <mxGeometry relative="1" as="geometry" />
        </mxCell>
        <mxCell id="D4o3qx-jDcPHW6__n_jF-65" value="success = 0" style="rounded=1;whiteSpace=wrap;html=1;" vertex="1" parent="1">
          <mxGeometry x="160" y="960" width="120" height="60" as="geometry" />
        </mxCell>
        <mxCell id="D4o3qx-jDcPHW6__n_jF-71" style="edgeStyle=none;curved=1;rounded=0;orthogonalLoop=1;jettySize=auto;html=1;exitX=0.5;exitY=1;exitDx=0;exitDy=0;entryX=0.5;entryY=0;entryDx=0;entryDy=0;fontSize=12;startSize=8;endSize=8;" edge="1" parent="1" source="D4o3qx-jDcPHW6__n_jF-66" target="D4o3qx-jDcPHW6__n_jF-68">
          <mxGeometry relative="1" as="geometry" />
        </mxCell>
        <mxCell id="D4o3qx-jDcPHW6__n_jF-66" value="fail = 1" style="rounded=1;whiteSpace=wrap;html=1;" vertex="1" parent="1">
          <mxGeometry x="159" y="1040" width="120" height="60" as="geometry" />
        </mxCell>
        <mxCell id="D4o3qx-jDcPHW6__n_jF-85" style="edgeStyle=none;curved=1;rounded=0;orthogonalLoop=1;jettySize=auto;html=1;exitX=0;exitY=0.5;exitDx=0;exitDy=0;entryX=0.5;entryY=0;entryDx=0;entryDy=0;fontSize=12;startSize=8;endSize=8;" edge="1" parent="1" source="D4o3qx-jDcPHW6__n_jF-68" target="D4o3qx-jDcPHW6__n_jF-73">
          <mxGeometry relative="1" as="geometry" />
        </mxCell>
        <mxCell id="D4o3qx-jDcPHW6__n_jF-86" style="edgeStyle=none;curved=1;rounded=0;orthogonalLoop=1;jettySize=auto;html=1;exitX=1;exitY=0.5;exitDx=0;exitDy=0;entryX=0.5;entryY=0;entryDx=0;entryDy=0;fontSize=12;startSize=8;endSize=8;" edge="1" parent="1" source="D4o3qx-jDcPHW6__n_jF-68" target="D4o3qx-jDcPHW6__n_jF-76">
          <mxGeometry relative="1" as="geometry" />
        </mxCell>
        <mxCell id="D4o3qx-jDcPHW6__n_jF-68" value="while&lt;div&gt;True&lt;/div&gt;" style="rhombus;whiteSpace=wrap;html=1;" vertex="1" parent="1">
          <mxGeometry x="149" y="1120" width="140" height="80" as="geometry" />
        </mxCell>
        <mxCell id="D4o3qx-jDcPHW6__n_jF-87" style="edgeStyle=none;curved=1;rounded=0;orthogonalLoop=1;jettySize=auto;html=1;exitX=0.5;exitY=1;exitDx=0;exitDy=0;entryX=0.5;entryY=0;entryDx=0;entryDy=0;fontSize=12;startSize=8;endSize=8;" edge="1" parent="1" source="D4o3qx-jDcPHW6__n_jF-73" target="D4o3qx-jDcPHW6__n_jF-74">
          <mxGeometry relative="1" as="geometry" />
        </mxCell>
        <mxCell id="D4o3qx-jDcPHW6__n_jF-73" value="if&lt;div&gt;success == 1&lt;/div&gt;" style="rhombus;whiteSpace=wrap;html=1;" vertex="1" parent="1">
          <mxGeometry x="60" y="1200" width="140" height="80" as="geometry" />
        </mxCell>
        <mxCell id="D4o3qx-jDcPHW6__n_jF-74" value="break" style="rounded=1;whiteSpace=wrap;html=1;" vertex="1" parent="1">
          <mxGeometry x="69.25" y="1310" width="120" height="60" as="geometry" />
        </mxCell>
        <mxCell id="D4o3qx-jDcPHW6__n_jF-89" style="edgeStyle=none;curved=1;rounded=0;orthogonalLoop=1;jettySize=auto;html=1;exitX=0;exitY=0.5;exitDx=0;exitDy=0;entryX=0.5;entryY=0;entryDx=0;entryDy=0;fontSize=12;startSize=8;endSize=8;" edge="1" parent="1" source="D4o3qx-jDcPHW6__n_jF-76" target="D4o3qx-jDcPHW6__n_jF-79">
          <mxGeometry relative="1" as="geometry" />
        </mxCell>
        <mxCell id="D4o3qx-jDcPHW6__n_jF-76" value="for&lt;div&gt;i in range(len(d))&lt;/div&gt;" style="rhombus;whiteSpace=wrap;html=1;" vertex="1" parent="1">
          <mxGeometry x="250" y="1200" width="140" height="80" as="geometry" />
        </mxCell>
        <mxCell id="D4o3qx-jDcPHW6__n_jF-77" value="if fail == 0" style="rhombus;whiteSpace=wrap;html=1;" vertex="1" parent="1">
          <mxGeometry x="350" y="1300" width="149.75" height="80" as="geometry" />
        </mxCell>
        <mxCell id="D4o3qx-jDcPHW6__n_jF-78" value="break" style="rounded=1;whiteSpace=wrap;html=1;" vertex="1" parent="1">
          <mxGeometry x="364.88" y="1390" width="120" height="60" as="geometry" />
        </mxCell>
        <mxCell id="D4o3qx-jDcPHW6__n_jF-79" value="cList = tlist.head" style="rounded=1;whiteSpace=wrap;html=1;" vertex="1" parent="1">
          <mxGeometry x="209.5" y="1310" width="120" height="60" as="geometry" />
        </mxCell>
        <mxCell id="D4o3qx-jDcPHW6__n_jF-80" value="fail = 0" style="rounded=1;whiteSpace=wrap;html=1;" vertex="1" parent="1">
          <mxGeometry x="209.5" y="1390" width="120" height="60" as="geometry" />
        </mxCell>
        <mxCell id="D4o3qx-jDcPHW6__n_jF-81" value="flag = 0" style="rounded=1;whiteSpace=wrap;html=1;" vertex="1" parent="1">
          <mxGeometry x="209.5" y="1470" width="120" height="60" as="geometry" />
        </mxCell>
        <mxCell id="D4o3qx-jDcPHW6__n_jF-82" value="max_list = []" style="rounded=1;whiteSpace=wrap;html=1;" vertex="1" parent="1">
          <mxGeometry x="209.5" y="1550" width="120" height="60" as="geometry" />
        </mxCell>
        <mxCell id="D4o3qx-jDcPHW6__n_jF-83" value="dis = [0] * n" style="rounded=1;whiteSpace=wrap;html=1;" vertex="1" parent="1">
          <mxGeometry x="209.5" y="1630" width="120" height="60" as="geometry" />
        </mxCell>
        <mxCell id="D4o3qx-jDcPHW6__n_jF-90" style="edgeStyle=none;curved=1;rounded=0;orthogonalLoop=1;jettySize=auto;html=1;exitX=1;exitY=0.5;exitDx=0;exitDy=0;entryX=0.543;entryY=0.113;entryDx=0;entryDy=0;entryPerimeter=0;fontSize=12;startSize=8;endSize=8;" edge="1" parent="1" source="D4o3qx-jDcPHW6__n_jF-76" target="D4o3qx-jDcPHW6__n_jF-77">
          <mxGeometry relative="1" as="geometry" />
        </mxCell>
        <mxCell id="D4o3qx-jDcPHW6__n_jF-91" style="edgeStyle=none;curved=1;rounded=0;orthogonalLoop=1;jettySize=auto;html=1;exitX=0.5;exitY=1;exitDx=0;exitDy=0;entryX=0.504;entryY=0.117;entryDx=0;entryDy=0;entryPerimeter=0;fontSize=12;startSize=8;endSize=8;" edge="1" parent="1" source="D4o3qx-jDcPHW6__n_jF-77" target="D4o3qx-jDcPHW6__n_jF-78">
          <mxGeometry relative="1" as="geometry" />
        </mxCell>
        <mxCell id="D4o3qx-jDcPHW6__n_jF-95" style="edgeStyle=none;curved=1;rounded=0;orthogonalLoop=1;jettySize=auto;html=1;exitX=0.5;exitY=1;exitDx=0;exitDy=0;entryX=0.5;entryY=0;entryDx=0;entryDy=0;fontSize=12;startSize=8;endSize=8;" edge="1" parent="1" source="D4o3qx-jDcPHW6__n_jF-92" target="D4o3qx-jDcPHW6__n_jF-93">
          <mxGeometry relative="1" as="geometry" />
        </mxCell>
        <mxCell id="D4o3qx-jDcPHW6__n_jF-92" value="for j in range(0, i, 1)" style="rhombus;whiteSpace=wrap;html=1;" vertex="1" parent="1">
          <mxGeometry x="194.75" y="1710" width="149.5" height="80" as="geometry" />
        </mxCell>
        <UserObject label="cList = cList.next" link="cList = cList.next" id="D4o3qx-jDcPHW6__n_jF-93">
          <mxCell style="rounded=1;whiteSpace=wrap;html=1;" vertex="1" parent="1">
            <mxGeometry x="209.5" y="1810" width="120" height="60" as="geometry" />
          </mxCell>
        </UserObject>
        <mxCell id="D4o3qx-jDcPHW6__n_jF-103" style="edgeStyle=none;curved=1;rounded=0;orthogonalLoop=1;jettySize=auto;html=1;exitX=0.5;exitY=1;exitDx=0;exitDy=0;entryX=0.5;entryY=0;entryDx=0;entryDy=0;fontSize=12;startSize=8;endSize=8;" edge="1" parent="1" source="D4o3qx-jDcPHW6__n_jF-94" target="D4o3qx-jDcPHW6__n_jF-102">
          <mxGeometry relative="1" as="geometry" />
        </mxCell>
        <UserObject label="start = cList.num" link="start = cList.num" id="D4o3qx-jDcPHW6__n_jF-94">
          <mxCell style="rounded=1;whiteSpace=wrap;html=1;" vertex="1" parent="1">
            <mxGeometry x="209.5" y="1890" width="120" height="60" as="geometry" />
          </mxCell>
        </UserObject>
        <mxCell id="D4o3qx-jDcPHW6__n_jF-96" value="" style="endArrow=none;html=1;rounded=0;fontSize=12;startSize=8;endSize=8;curved=1;entryX=0;entryY=0.5;entryDx=0;entryDy=0;" edge="1" parent="1" target="D4o3qx-jDcPHW6__n_jF-93">
          <mxGeometry width="50" height="50" relative="1" as="geometry">
            <mxPoint x="160" y="1840" as="sourcePoint" />
            <mxPoint x="260" y="2040" as="targetPoint" />
          </mxGeometry>
        </mxCell>
        <mxCell id="D4o3qx-jDcPHW6__n_jF-97" value="" style="endArrow=none;html=1;rounded=0;fontSize=12;startSize=8;endSize=8;curved=1;" edge="1" parent="1">
          <mxGeometry width="50" height="50" relative="1" as="geometry">
            <mxPoint x="160" y="1750" as="sourcePoint" />
            <mxPoint x="160" y="1840" as="targetPoint" />
          </mxGeometry>
        </mxCell>
        <mxCell id="D4o3qx-jDcPHW6__n_jF-98" value="" style="endArrow=classic;html=1;rounded=0;fontSize=12;startSize=8;endSize=8;curved=1;entryX=0;entryY=0.5;entryDx=0;entryDy=0;" edge="1" parent="1" target="D4o3qx-jDcPHW6__n_jF-92">
          <mxGeometry width="50" height="50" relative="1" as="geometry">
            <mxPoint x="160" y="1750" as="sourcePoint" />
            <mxPoint x="260" y="2040" as="targetPoint" />
          </mxGeometry>
        </mxCell>
        <mxCell id="D4o3qx-jDcPHW6__n_jF-99" value="" style="endArrow=none;html=1;rounded=0;fontSize=12;startSize=8;endSize=8;curved=1;entryX=1;entryY=0.5;entryDx=0;entryDy=0;" edge="1" parent="1" target="D4o3qx-jDcPHW6__n_jF-92">
          <mxGeometry width="50" height="50" relative="1" as="geometry">
            <mxPoint x="390" y="1750" as="sourcePoint" />
            <mxPoint x="260" y="2040" as="targetPoint" />
          </mxGeometry>
        </mxCell>
        <mxCell id="D4o3qx-jDcPHW6__n_jF-100" value="" style="endArrow=none;html=1;rounded=0;fontSize=12;startSize=8;endSize=8;curved=1;" edge="1" parent="1">
          <mxGeometry width="50" height="50" relative="1" as="geometry">
            <mxPoint x="390" y="1920" as="sourcePoint" />
            <mxPoint x="390" y="1750" as="targetPoint" />
          </mxGeometry>
        </mxCell>
        <mxCell id="D4o3qx-jDcPHW6__n_jF-101" value="" style="endArrow=classic;html=1;rounded=0;fontSize=12;startSize=8;endSize=8;curved=1;entryX=1;entryY=0.5;entryDx=0;entryDy=0;" edge="1" parent="1" target="D4o3qx-jDcPHW6__n_jF-94">
          <mxGeometry width="50" height="50" relative="1" as="geometry">
            <mxPoint x="390" y="1920" as="sourcePoint" />
            <mxPoint x="260" y="2040" as="targetPoint" />
          </mxGeometry>
        </mxCell>
        <UserObject label="max_list.append&lt;div&gt;(int(cList.num - 0.5))&lt;/div&gt;" link="max_list.append(int(cList.num - 0.5))" id="D4o3qx-jDcPHW6__n_jF-102">
          <mxCell style="rounded=1;whiteSpace=wrap;html=1;" vertex="1" parent="1">
            <mxGeometry x="209.5" y="1970" width="120" height="60" as="geometry" />
          </mxCell>
        </UserObject>
        <mxCell id="D4o3qx-jDcPHW6__n_jF-104" value="for&amp;nbsp;&lt;div&gt;p ←（len(dis)）&lt;/div&gt;" style="rhombus;whiteSpace=wrap;html=1;" vertex="1" parent="1">
          <mxGeometry x="199.5" y="2050" width="140" height="80" as="geometry" />
        </mxCell>
        <mxCell id="D4o3qx-jDcPHW6__n_jF-105" style="edgeStyle=none;curved=1;rounded=0;orthogonalLoop=1;jettySize=auto;html=1;exitX=0.5;exitY=1;exitDx=0;exitDy=0;entryX=0.504;entryY=0.088;entryDx=0;entryDy=0;entryPerimeter=0;fontSize=12;startSize=8;endSize=8;" edge="1" parent="1" source="D4o3qx-jDcPHW6__n_jF-102" target="D4o3qx-jDcPHW6__n_jF-104">
          <mxGeometry relative="1" as="geometry" />
        </mxCell>
        <mxCell id="D4o3qx-jDcPHW6__n_jF-143" style="edgeStyle=none;curved=1;rounded=0;orthogonalLoop=1;jettySize=auto;html=1;exitX=0.5;exitY=1;exitDx=0;exitDy=0;entryX=0.5;entryY=0;entryDx=0;entryDy=0;fontSize=12;startSize=8;endSize=8;" edge="1" parent="1" source="D4o3qx-jDcPHW6__n_jF-106" target="D4o3qx-jDcPHW6__n_jF-108">
          <mxGeometry relative="1" as="geometry" />
        </mxCell>
        <mxCell id="D4o3qx-jDcPHW6__n_jF-106" value="if&amp;nbsp;&lt;div&gt;fail == 1&lt;/div&gt;" style="rhombus;whiteSpace=wrap;html=1;" vertex="1" parent="1">
          <mxGeometry x="-354.25" y="2126" width="150" height="80" as="geometry" />
        </mxCell>
        <mxCell id="D4o3qx-jDcPHW6__n_jF-146" style="edgeStyle=none;curved=1;rounded=0;orthogonalLoop=1;jettySize=auto;html=1;exitX=0.5;exitY=1;exitDx=0;exitDy=0;entryX=0.5;entryY=0;entryDx=0;entryDy=0;fontSize=12;startSize=8;endSize=8;" edge="1" parent="1" source="D4o3qx-jDcPHW6__n_jF-107" target="D4o3qx-jDcPHW6__n_jF-112">
          <mxGeometry relative="1" as="geometry" />
        </mxCell>
        <mxCell id="D4o3qx-jDcPHW6__n_jF-107" value="while&lt;div&gt;True&lt;/div&gt;" style="rhombus;whiteSpace=wrap;html=1;" vertex="1" parent="1">
          <mxGeometry x="26" y="2126" width="150" height="80" as="geometry" />
        </mxCell>
        <mxCell id="D4o3qx-jDcPHW6__n_jF-108" value="break" style="rounded=1;whiteSpace=wrap;html=1;" vertex="1" parent="1">
          <mxGeometry x="-339.25" y="2226" width="120" height="60" as="geometry" />
        </mxCell>
        <mxCell id="D4o3qx-jDcPHW6__n_jF-147" style="edgeStyle=none;curved=1;rounded=0;orthogonalLoop=1;jettySize=auto;html=1;exitX=0.5;exitY=1;exitDx=0;exitDy=0;entryX=0.5;entryY=0;entryDx=0;entryDy=0;fontSize=12;startSize=8;endSize=8;" edge="1" parent="1" source="D4o3qx-jDcPHW6__n_jF-109" target="D4o3qx-jDcPHW6__n_jF-115">
          <mxGeometry relative="1" as="geometry" />
        </mxCell>
        <mxCell id="D4o3qx-jDcPHW6__n_jF-109" value="if&lt;div&gt;flag == 1&lt;br&gt;&lt;/div&gt;" style="rhombus;whiteSpace=wrap;html=1;" vertex="1" parent="1">
          <mxGeometry x="-175" y="2216" width="150" height="80" as="geometry" />
        </mxCell>
        <mxCell id="D4o3qx-jDcPHW6__n_jF-172" style="edgeStyle=none;curved=1;rounded=0;orthogonalLoop=1;jettySize=auto;html=1;exitX=1;exitY=0.5;exitDx=0;exitDy=0;fontSize=12;startSize=8;endSize=8;" edge="1" parent="1" source="D4o3qx-jDcPHW6__n_jF-110" target="D4o3qx-jDcPHW6__n_jF-133">
          <mxGeometry relative="1" as="geometry" />
        </mxCell>
        <mxCell id="D4o3qx-jDcPHW6__n_jF-110" value="else" style="rhombus;whiteSpace=wrap;html=1;" vertex="1" parent="1">
          <mxGeometry x="797" y="2206" width="150" height="80" as="geometry" />
        </mxCell>
        <mxCell id="D4o3qx-jDcPHW6__n_jF-160" style="edgeStyle=none;curved=1;rounded=0;orthogonalLoop=1;jettySize=auto;html=1;exitX=0.5;exitY=1;exitDx=0;exitDy=0;fontSize=12;startSize=8;endSize=8;" edge="1" parent="1" source="D4o3qx-jDcPHW6__n_jF-111" target="D4o3qx-jDcPHW6__n_jF-125">
          <mxGeometry relative="1" as="geometry" />
        </mxCell>
        <mxCell id="D4o3qx-jDcPHW6__n_jF-111" value="if&lt;div&gt;p == 0&lt;br&gt;&lt;/div&gt;" style="rhombus;whiteSpace=wrap;html=1;" vertex="1" parent="1">
          <mxGeometry x="377" y="2216" width="150" height="80" as="geometry" />
        </mxCell>
        <mxCell id="D4o3qx-jDcPHW6__n_jF-119" style="edgeStyle=none;curved=1;rounded=0;orthogonalLoop=1;jettySize=auto;html=1;exitX=0.5;exitY=1;exitDx=0;exitDy=0;entryX=0.5;entryY=0;entryDx=0;entryDy=0;fontSize=12;startSize=8;endSize=8;" edge="1" parent="1" source="D4o3qx-jDcPHW6__n_jF-112" target="D4o3qx-jDcPHW6__n_jF-117">
          <mxGeometry relative="1" as="geometry" />
        </mxCell>
        <mxCell id="D4o3qx-jDcPHW6__n_jF-112" value="if&lt;div&gt;cList.next.num == start&lt;br&gt;&lt;/div&gt;" style="rhombus;whiteSpace=wrap;html=1;" vertex="1" parent="1">
          <mxGeometry x="46" y="2216" width="150" height="80" as="geometry" />
        </mxCell>
        <mxCell id="D4o3qx-jDcPHW6__n_jF-115" value="break" style="rounded=1;whiteSpace=wrap;html=1;" vertex="1" parent="1">
          <mxGeometry x="-160" y="2316" width="120" height="60" as="geometry" />
        </mxCell>
        <UserObject label="cList = cList.next" link="cList = cList.next" id="D4o3qx-jDcPHW6__n_jF-116">
          <mxCell style="rounded=1;whiteSpace=wrap;html=1;" vertex="1" parent="1">
            <mxGeometry x="892" y="2406" width="120" height="60" as="geometry" />
          </mxCell>
        </UserObject>
        <mxCell id="D4o3qx-jDcPHW6__n_jF-148" style="edgeStyle=none;curved=1;rounded=0;orthogonalLoop=1;jettySize=auto;html=1;exitX=0.5;exitY=1;exitDx=0;exitDy=0;entryX=0.5;entryY=0;entryDx=0;entryDy=0;fontSize=12;startSize=8;endSize=8;" edge="1" parent="1" source="D4o3qx-jDcPHW6__n_jF-117" target="D4o3qx-jDcPHW6__n_jF-118">
          <mxGeometry relative="1" as="geometry" />
        </mxCell>
        <mxCell id="D4o3qx-jDcPHW6__n_jF-117" value="flag = 1" style="rounded=1;whiteSpace=wrap;html=1;" vertex="1" parent="1">
          <mxGeometry x="61" y="2316" width="120" height="60" as="geometry" />
        </mxCell>
        <UserObject label="dis[p] += cList.dis" link="dis[p] += cList.dis" id="D4o3qx-jDcPHW6__n_jF-118">
          <mxCell style="rounded=1;whiteSpace=wrap;html=1;" vertex="1" parent="1">
            <mxGeometry x="61" y="2406" width="120" height="60" as="geometry" />
          </mxCell>
        </UserObject>
        <mxCell id="D4o3qx-jDcPHW6__n_jF-120" value="max_list.pop()" style="rounded=1;whiteSpace=wrap;html=1;" vertex="1" parent="1">
          <mxGeometry x="209.5" y="2720" width="120" height="60" as="geometry" />
        </mxCell>
        <mxCell id="D4o3qx-jDcPHW6__n_jF-161" style="edgeStyle=none;curved=1;rounded=0;orthogonalLoop=1;jettySize=auto;html=1;exitX=0.5;exitY=1;exitDx=0;exitDy=0;fontSize=12;startSize=8;endSize=8;" edge="1" parent="1" source="D4o3qx-jDcPHW6__n_jF-122" target="D4o3qx-jDcPHW6__n_jF-128">
          <mxGeometry relative="1" as="geometry" />
        </mxCell>
        <mxCell id="D4o3qx-jDcPHW6__n_jF-122" value="&lt;div&gt;if&lt;/div&gt;dis[p] == pre" style="rhombus;whiteSpace=wrap;html=1;" vertex="1" parent="1">
          <mxGeometry x="217" y="2306" width="150" height="80" as="geometry" />
        </mxCell>
        <mxCell id="D4o3qx-jDcPHW6__n_jF-168" style="edgeStyle=none;curved=1;rounded=0;orthogonalLoop=1;jettySize=auto;html=1;exitX=0.5;exitY=1;exitDx=0;exitDy=0;fontSize=12;startSize=8;endSize=8;" edge="1" parent="1" source="D4o3qx-jDcPHW6__n_jF-124" target="D4o3qx-jDcPHW6__n_jF-126">
          <mxGeometry relative="1" as="geometry" />
        </mxCell>
        <mxCell id="D4o3qx-jDcPHW6__n_jF-124" value="else" style="rhombus;whiteSpace=wrap;html=1;" vertex="1" parent="1">
          <mxGeometry x="537" y="2306" width="150" height="80" as="geometry" />
        </mxCell>
        <mxCell id="D4o3qx-jDcPHW6__n_jF-163" style="edgeStyle=none;curved=1;rounded=0;orthogonalLoop=1;jettySize=auto;html=1;exitX=0.5;exitY=1;exitDx=0;exitDy=0;fontSize=12;startSize=8;endSize=8;" edge="1" parent="1" source="D4o3qx-jDcPHW6__n_jF-125" target="D4o3qx-jDcPHW6__n_jF-127">
          <mxGeometry relative="1" as="geometry" />
        </mxCell>
        <mxCell id="D4o3qx-jDcPHW6__n_jF-125" value="&lt;div&gt;elif&lt;/div&gt;dis[p] &amp;gt; pre" style="rhombus;whiteSpace=wrap;html=1;" vertex="1" parent="1">
          <mxGeometry x="377" y="2306" width="150" height="80" as="geometry" />
        </mxCell>
        <mxCell id="D4o3qx-jDcPHW6__n_jF-126" value="cList = cList.next" style="rounded=1;whiteSpace=wrap;html=1;" vertex="1" parent="1">
          <mxGeometry x="552" y="2406" width="120" height="60" as="geometry" />
        </mxCell>
        <mxCell id="D4o3qx-jDcPHW6__n_jF-164" style="edgeStyle=none;curved=1;rounded=0;orthogonalLoop=1;jettySize=auto;html=1;exitX=0.5;exitY=1;exitDx=0;exitDy=0;fontSize=12;startSize=8;endSize=8;" edge="1" parent="1" source="D4o3qx-jDcPHW6__n_jF-127" target="D4o3qx-jDcPHW6__n_jF-129">
          <mxGeometry relative="1" as="geometry" />
        </mxCell>
        <mxCell id="D4o3qx-jDcPHW6__n_jF-127" value="fail = 1" style="rounded=1;whiteSpace=wrap;html=1;" vertex="1" parent="1">
          <mxGeometry x="392" y="2406" width="120" height="60" as="geometry" />
        </mxCell>
        <mxCell id="D4o3qx-jDcPHW6__n_jF-162" style="edgeStyle=none;curved=1;rounded=0;orthogonalLoop=1;jettySize=auto;html=1;exitX=0.5;exitY=1;exitDx=0;exitDy=0;entryX=0.5;entryY=0;entryDx=0;entryDy=0;fontSize=12;startSize=8;endSize=8;" edge="1" parent="1" source="D4o3qx-jDcPHW6__n_jF-128" target="D4o3qx-jDcPHW6__n_jF-130">
          <mxGeometry relative="1" as="geometry" />
        </mxCell>
        <mxCell id="D4o3qx-jDcPHW6__n_jF-128" value="max_list.append&lt;div&gt;(int(cList.num + 0.5))&lt;/div&gt;" style="rounded=1;whiteSpace=wrap;html=1;" vertex="1" parent="1">
          <mxGeometry x="237" y="2406" width="120" height="60" as="geometry" />
        </mxCell>
        <mxCell id="D4o3qx-jDcPHW6__n_jF-129" value="break" style="rounded=1;whiteSpace=wrap;html=1;" vertex="1" parent="1">
          <mxGeometry x="392" y="2496" width="120" height="60" as="geometry" />
        </mxCell>
        <mxCell id="D4o3qx-jDcPHW6__n_jF-167" style="edgeStyle=none;curved=1;rounded=0;orthogonalLoop=1;jettySize=auto;html=1;exitX=0.5;exitY=1;exitDx=0;exitDy=0;entryX=0.5;entryY=0;entryDx=0;entryDy=0;fontSize=12;startSize=8;endSize=8;" edge="1" parent="1" source="D4o3qx-jDcPHW6__n_jF-130" target="D4o3qx-jDcPHW6__n_jF-166">
          <mxGeometry relative="1" as="geometry" />
        </mxCell>
        <UserObject label="cList = cList.next" link="cList = cList.next" id="D4o3qx-jDcPHW6__n_jF-130">
          <mxCell style="rounded=1;whiteSpace=wrap;html=1;" vertex="1" parent="1">
            <mxGeometry x="237" y="2496" width="120" height="60" as="geometry" />
          </mxCell>
        </UserObject>
        <mxCell id="D4o3qx-jDcPHW6__n_jF-174" style="edgeStyle=none;curved=1;rounded=0;orthogonalLoop=1;jettySize=auto;html=1;exitX=0.5;exitY=1;exitDx=0;exitDy=0;fontSize=12;startSize=8;endSize=8;" edge="1" parent="1" source="D4o3qx-jDcPHW6__n_jF-132" target="D4o3qx-jDcPHW6__n_jF-136">
          <mxGeometry relative="1" as="geometry" />
        </mxCell>
        <mxCell id="D4o3qx-jDcPHW6__n_jF-132" value="if&lt;div&gt;dis[p] &amp;gt;= dis[0]&lt;br&gt;&lt;div&gt;&lt;br&gt;&lt;/div&gt;&lt;/div&gt;" style="rhombus;whiteSpace=wrap;html=1;" vertex="1" parent="1">
          <mxGeometry x="717" y="2306" width="150" height="80" as="geometry" />
        </mxCell>
        <mxCell id="D4o3qx-jDcPHW6__n_jF-173" style="edgeStyle=none;curved=1;rounded=0;orthogonalLoop=1;jettySize=auto;html=1;exitX=0.5;exitY=1;exitDx=0;exitDy=0;fontSize=12;startSize=8;endSize=8;" edge="1" parent="1" source="D4o3qx-jDcPHW6__n_jF-133" target="D4o3qx-jDcPHW6__n_jF-116">
          <mxGeometry relative="1" as="geometry" />
        </mxCell>
        <mxCell id="D4o3qx-jDcPHW6__n_jF-133" value="else" style="rhombus;whiteSpace=wrap;html=1;" vertex="1" parent="1">
          <mxGeometry x="877" y="2306" width="150" height="80" as="geometry" />
        </mxCell>
        <mxCell id="D4o3qx-jDcPHW6__n_jF-134" value="break" style="rounded=1;whiteSpace=wrap;html=1;" vertex="1" parent="1">
          <mxGeometry x="732" y="2586" width="120" height="60" as="geometry" />
        </mxCell>
        <mxCell id="D4o3qx-jDcPHW6__n_jF-176" style="edgeStyle=none;curved=1;rounded=0;orthogonalLoop=1;jettySize=auto;html=1;exitX=0.5;exitY=1;exitDx=0;exitDy=0;entryX=0.5;entryY=0;entryDx=0;entryDy=0;fontSize=12;startSize=8;endSize=8;" edge="1" parent="1" source="D4o3qx-jDcPHW6__n_jF-135" target="D4o3qx-jDcPHW6__n_jF-134">
          <mxGeometry relative="1" as="geometry" />
        </mxCell>
        <UserObject label="cList = cList.next" link="cList = cList.next" id="D4o3qx-jDcPHW6__n_jF-135">
          <mxCell style="rounded=1;whiteSpace=wrap;html=1;" vertex="1" parent="1">
            <mxGeometry x="732" y="2496" width="120" height="60" as="geometry" />
          </mxCell>
        </UserObject>
        <mxCell id="D4o3qx-jDcPHW6__n_jF-175" style="edgeStyle=none;curved=1;rounded=0;orthogonalLoop=1;jettySize=auto;html=1;exitX=0.5;exitY=1;exitDx=0;exitDy=0;fontSize=12;startSize=8;endSize=8;" edge="1" parent="1" source="D4o3qx-jDcPHW6__n_jF-136" target="D4o3qx-jDcPHW6__n_jF-135">
          <mxGeometry relative="1" as="geometry" />
        </mxCell>
        <mxCell id="D4o3qx-jDcPHW6__n_jF-136" value="max_list.append&lt;div&gt;(int(cList.num + 0.5))&lt;/div&gt;" style="rounded=1;whiteSpace=wrap;html=1;" vertex="1" parent="1">
          <mxGeometry x="732" y="2406" width="120" height="60" as="geometry" />
        </mxCell>
        <mxCell id="D4o3qx-jDcPHW6__n_jF-138" value="" style="endArrow=none;html=1;rounded=0;fontSize=12;startSize=8;endSize=8;curved=1;entryX=0;entryY=0.5;entryDx=0;entryDy=0;" edge="1" parent="1" target="D4o3qx-jDcPHW6__n_jF-104">
          <mxGeometry width="50" height="50" relative="1" as="geometry">
            <mxPoint x="-280" y="2090" as="sourcePoint" />
            <mxPoint y="2340" as="targetPoint" />
          </mxGeometry>
        </mxCell>
        <mxCell id="D4o3qx-jDcPHW6__n_jF-139" value="" style="endArrow=classic;html=1;rounded=0;fontSize=12;startSize=8;endSize=8;curved=1;" edge="1" parent="1" target="D4o3qx-jDcPHW6__n_jF-106">
          <mxGeometry width="50" height="50" relative="1" as="geometry">
            <mxPoint x="-280" y="2090" as="sourcePoint" />
            <mxPoint y="2340" as="targetPoint" />
          </mxGeometry>
        </mxCell>
        <mxCell id="D4o3qx-jDcPHW6__n_jF-142" value="" style="endArrow=classic;html=1;rounded=0;fontSize=12;startSize=8;endSize=8;curved=1;" edge="1" parent="1" target="D4o3qx-jDcPHW6__n_jF-107">
          <mxGeometry width="50" height="50" relative="1" as="geometry">
            <mxPoint x="100" y="2090" as="sourcePoint" />
            <mxPoint y="2340" as="targetPoint" />
          </mxGeometry>
        </mxCell>
        <mxCell id="D4o3qx-jDcPHW6__n_jF-144" value="" style="endArrow=none;html=1;rounded=0;fontSize=12;startSize=8;endSize=8;curved=1;entryX=0;entryY=0.5;entryDx=0;entryDy=0;" edge="1" parent="1" target="D4o3qx-jDcPHW6__n_jF-107">
          <mxGeometry width="50" height="50" relative="1" as="geometry">
            <mxPoint x="-100" y="2166" as="sourcePoint" />
            <mxPoint x="110" y="2310" as="targetPoint" />
          </mxGeometry>
        </mxCell>
        <mxCell id="D4o3qx-jDcPHW6__n_jF-145" value="" style="endArrow=classic;html=1;rounded=0;fontSize=12;startSize=8;endSize=8;curved=1;entryX=0.5;entryY=0;entryDx=0;entryDy=0;" edge="1" parent="1" target="D4o3qx-jDcPHW6__n_jF-109">
          <mxGeometry width="50" height="50" relative="1" as="geometry">
            <mxPoint x="-100" y="2170" as="sourcePoint" />
            <mxPoint x="110" y="2310" as="targetPoint" />
          </mxGeometry>
        </mxCell>
        <mxCell id="D4o3qx-jDcPHW6__n_jF-149" value="" style="endArrow=none;html=1;rounded=0;fontSize=12;startSize=8;endSize=8;curved=1;exitX=1;exitY=0.5;exitDx=0;exitDy=0;" edge="1" parent="1" source="D4o3qx-jDcPHW6__n_jF-118">
          <mxGeometry width="50" height="50" relative="1" as="geometry">
            <mxPoint x="540" y="2200" as="sourcePoint" />
            <mxPoint x="200" y="2436" as="targetPoint" />
          </mxGeometry>
        </mxCell>
        <mxCell id="D4o3qx-jDcPHW6__n_jF-150" value="" style="endArrow=none;html=1;rounded=0;fontSize=12;startSize=8;endSize=8;curved=1;" edge="1" parent="1">
          <mxGeometry width="50" height="50" relative="1" as="geometry">
            <mxPoint x="200" y="2440" as="sourcePoint" />
            <mxPoint x="200" y="2190" as="targetPoint" />
          </mxGeometry>
        </mxCell>
        <mxCell id="D4o3qx-jDcPHW6__n_jF-151" value="" style="endArrow=none;html=1;rounded=0;fontSize=12;startSize=8;endSize=8;curved=1;" edge="1" parent="1">
          <mxGeometry width="50" height="50" relative="1" as="geometry">
            <mxPoint x="450" y="2190" as="sourcePoint" />
            <mxPoint x="200" y="2190" as="targetPoint" />
          </mxGeometry>
        </mxCell>
        <mxCell id="D4o3qx-jDcPHW6__n_jF-152" value="" style="endArrow=classic;html=1;rounded=0;fontSize=12;startSize=8;endSize=8;curved=1;entryX=0.5;entryY=0;entryDx=0;entryDy=0;" edge="1" parent="1" target="D4o3qx-jDcPHW6__n_jF-111">
          <mxGeometry width="50" height="50" relative="1" as="geometry">
            <mxPoint x="452" y="2190" as="sourcePoint" />
            <mxPoint x="320" y="2290" as="targetPoint" />
          </mxGeometry>
        </mxCell>
        <mxCell id="D4o3qx-jDcPHW6__n_jF-153" value="" style="endArrow=none;html=1;rounded=0;fontSize=12;startSize=8;endSize=8;curved=1;" edge="1" parent="1">
          <mxGeometry width="50" height="50" relative="1" as="geometry">
            <mxPoint x="870" y="2190" as="sourcePoint" />
            <mxPoint x="450" y="2190" as="targetPoint" />
          </mxGeometry>
        </mxCell>
        <mxCell id="D4o3qx-jDcPHW6__n_jF-154" value="" style="endArrow=classic;html=1;rounded=0;fontSize=12;startSize=8;endSize=8;curved=1;entryX=0.5;entryY=0;entryDx=0;entryDy=0;" edge="1" parent="1" target="D4o3qx-jDcPHW6__n_jF-110">
          <mxGeometry width="50" height="50" relative="1" as="geometry">
            <mxPoint x="870" y="2190" as="sourcePoint" />
            <mxPoint x="740" y="2290" as="targetPoint" />
          </mxGeometry>
        </mxCell>
        <mxCell id="D4o3qx-jDcPHW6__n_jF-155" value="" style="endArrow=none;html=1;rounded=0;fontSize=12;startSize=8;endSize=8;curved=1;entryX=0;entryY=0.5;entryDx=0;entryDy=0;" edge="1" parent="1" target="D4o3qx-jDcPHW6__n_jF-111">
          <mxGeometry width="50" height="50" relative="1" as="geometry">
            <mxPoint x="290" y="2256" as="sourcePoint" />
            <mxPoint x="500" y="2430" as="targetPoint" />
          </mxGeometry>
        </mxCell>
        <mxCell id="D4o3qx-jDcPHW6__n_jF-156" value="" style="endArrow=classic;html=1;rounded=0;fontSize=12;startSize=8;endSize=8;curved=1;entryX=0.5;entryY=0;entryDx=0;entryDy=0;" edge="1" parent="1" target="D4o3qx-jDcPHW6__n_jF-122">
          <mxGeometry width="50" height="50" relative="1" as="geometry">
            <mxPoint x="290" y="2250" as="sourcePoint" />
            <mxPoint x="280" y="2300" as="targetPoint" />
          </mxGeometry>
        </mxCell>
        <mxCell id="D4o3qx-jDcPHW6__n_jF-158" value="" style="endArrow=classic;html=1;rounded=0;fontSize=12;startSize=8;endSize=8;curved=1;entryX=0.5;entryY=0;entryDx=0;entryDy=0;" edge="1" parent="1" target="D4o3qx-jDcPHW6__n_jF-124">
          <mxGeometry width="50" height="50" relative="1" as="geometry">
            <mxPoint x="612" y="2250" as="sourcePoint" />
            <mxPoint x="450" y="2320" as="targetPoint" />
          </mxGeometry>
        </mxCell>
        <mxCell id="D4o3qx-jDcPHW6__n_jF-159" value="" style="endArrow=none;html=1;rounded=0;fontSize=12;startSize=8;endSize=8;curved=1;exitX=1;exitY=0.5;exitDx=0;exitDy=0;" edge="1" parent="1" source="D4o3qx-jDcPHW6__n_jF-111">
          <mxGeometry width="50" height="50" relative="1" as="geometry">
            <mxPoint x="450" y="2480" as="sourcePoint" />
            <mxPoint x="610" y="2256" as="targetPoint" />
          </mxGeometry>
        </mxCell>
        <mxCell id="D4o3qx-jDcPHW6__n_jF-166" value="break" style="rounded=1;whiteSpace=wrap;html=1;" vertex="1" parent="1">
          <mxGeometry x="237" y="2586" width="120" height="60" as="geometry" />
        </mxCell>
        <mxCell id="D4o3qx-jDcPHW6__n_jF-169" style="edgeStyle=none;curved=1;rounded=0;orthogonalLoop=1;jettySize=auto;html=1;exitX=0;exitY=0.5;exitDx=0;exitDy=0;entryX=0.444;entryY=0.115;entryDx=0;entryDy=0;entryPerimeter=0;fontSize=12;startSize=8;endSize=8;" edge="1" parent="1" source="D4o3qx-jDcPHW6__n_jF-110" target="D4o3qx-jDcPHW6__n_jF-132">
          <mxGeometry relative="1" as="geometry" />
        </mxCell>
        <mxCell id="D4o3qx-jDcPHW6__n_jF-170" value="" style="endArrow=none;html=1;rounded=0;fontSize=12;startSize=8;endSize=8;curved=1;entryX=1;entryY=0.5;entryDx=0;entryDy=0;" edge="1" parent="1" target="D4o3qx-jDcPHW6__n_jF-110">
          <mxGeometry width="50" height="50" relative="1" as="geometry">
            <mxPoint x="950" y="2246" as="sourcePoint" />
            <mxPoint x="830" y="2460" as="targetPoint" />
          </mxGeometry>
        </mxCell>
        <mxCell id="D4o3qx-jDcPHW6__n_jF-183" style="edgeStyle=none;curved=1;rounded=0;orthogonalLoop=1;jettySize=auto;html=1;exitX=0.5;exitY=1;exitDx=0;exitDy=0;entryX=0.5;entryY=0;entryDx=0;entryDy=0;fontSize=12;startSize=8;endSize=8;" edge="1" parent="1" source="D4o3qx-jDcPHW6__n_jF-177" target="D4o3qx-jDcPHW6__n_jF-182">
          <mxGeometry relative="1" as="geometry" />
        </mxCell>
        <mxCell id="D4o3qx-jDcPHW6__n_jF-177" value="if&amp;nbsp;&lt;div&gt;min(dis) == pre&lt;/div&gt;" style="rhombus;whiteSpace=wrap;html=1;" vertex="1" parent="1">
          <mxGeometry x="87" y="2780" width="150" height="80" as="geometry" />
        </mxCell>
        <mxCell id="D4o3qx-jDcPHW6__n_jF-185" style="edgeStyle=none;curved=1;rounded=0;orthogonalLoop=1;jettySize=auto;html=1;exitX=0.5;exitY=1;exitDx=0;exitDy=0;fontSize=12;startSize=8;endSize=8;" edge="1" parent="1" source="D4o3qx-jDcPHW6__n_jF-178" target="D4o3qx-jDcPHW6__n_jF-180">
          <mxGeometry relative="1" as="geometry" />
        </mxCell>
        <mxCell id="D4o3qx-jDcPHW6__n_jF-178" value="else" style="rhombus;whiteSpace=wrap;html=1;" vertex="1" parent="1">
          <mxGeometry x="294" y="2780" width="150" height="80" as="geometry" />
        </mxCell>
        <mxCell id="D4o3qx-jDcPHW6__n_jF-179" value="pre -= 1" style="rounded=1;whiteSpace=wrap;html=1;" vertex="1" parent="1">
          <mxGeometry x="309" y="2950" width="120" height="60" as="geometry" />
        </mxCell>
        <mxCell id="D4o3qx-jDcPHW6__n_jF-186" style="edgeStyle=none;curved=1;rounded=0;orthogonalLoop=1;jettySize=auto;html=1;exitX=0.5;exitY=1;exitDx=0;exitDy=0;fontSize=12;startSize=8;endSize=8;" edge="1" parent="1" source="D4o3qx-jDcPHW6__n_jF-180" target="D4o3qx-jDcPHW6__n_jF-179">
          <mxGeometry relative="1" as="geometry" />
        </mxCell>
        <mxCell id="D4o3qx-jDcPHW6__n_jF-180" value="fail = 1" style="rounded=1;whiteSpace=wrap;html=1;" vertex="1" parent="1">
          <mxGeometry x="309" y="2870" width="120" height="60" as="geometry" />
        </mxCell>
        <mxCell id="D4o3qx-jDcPHW6__n_jF-181" value="success = 1" style="rounded=1;whiteSpace=wrap;html=1;" vertex="1" parent="1">
          <mxGeometry x="102" y="2950" width="120" height="60" as="geometry" />
        </mxCell>
        <mxCell id="D4o3qx-jDcPHW6__n_jF-184" style="edgeStyle=none;curved=1;rounded=0;orthogonalLoop=1;jettySize=auto;html=1;exitX=0.5;exitY=1;exitDx=0;exitDy=0;entryX=0.5;entryY=0;entryDx=0;entryDy=0;fontSize=12;startSize=8;endSize=8;" edge="1" parent="1" source="D4o3qx-jDcPHW6__n_jF-182" target="D4o3qx-jDcPHW6__n_jF-181">
          <mxGeometry relative="1" as="geometry" />
        </mxCell>
        <mxCell id="D4o3qx-jDcPHW6__n_jF-182" value="&amp;nbsp;max = pre" style="rounded=1;whiteSpace=wrap;html=1;" vertex="1" parent="1">
          <mxGeometry x="102" y="2870" width="120" height="60" as="geometry" />
        </mxCell>
        <mxCell id="D4o3qx-jDcPHW6__n_jF-187" value="終了" style="rounded=0;whiteSpace=wrap;html=1;" vertex="1" parent="1">
          <mxGeometry x="209.5" y="3020" width="120" height="60" as="geometry" />
        </mxCell>
        <mxCell id="D4o3qx-jDcPHW6__n_jF-188" value="" style="endArrow=none;html=1;rounded=0;fontSize=12;startSize=8;endSize=8;curved=1;entryX=0;entryY=0.5;entryDx=0;entryDy=0;" edge="1" parent="1" target="D4o3qx-jDcPHW6__n_jF-120">
          <mxGeometry width="50" height="50" relative="1" as="geometry">
            <mxPoint x="160" y="2750" as="sourcePoint" />
            <mxPoint x="300" y="2820" as="targetPoint" />
          </mxGeometry>
        </mxCell>
        <mxCell id="D4o3qx-jDcPHW6__n_jF-189" value="" style="endArrow=none;html=1;rounded=0;fontSize=12;startSize=8;endSize=8;curved=1;entryX=1;entryY=0.5;entryDx=0;entryDy=0;" edge="1" parent="1" target="D4o3qx-jDcPHW6__n_jF-120">
          <mxGeometry width="50" height="50" relative="1" as="geometry">
            <mxPoint x="370" y="2750" as="sourcePoint" />
            <mxPoint x="300" y="2820" as="targetPoint" />
          </mxGeometry>
        </mxCell>
        <mxCell id="D4o3qx-jDcPHW6__n_jF-190" value="" style="endArrow=classic;html=1;rounded=0;fontSize=12;startSize=8;endSize=8;curved=1;entryX=0.5;entryY=0;entryDx=0;entryDy=0;" edge="1" parent="1" target="D4o3qx-jDcPHW6__n_jF-177">
          <mxGeometry width="50" height="50" relative="1" as="geometry">
            <mxPoint x="160" y="2750" as="sourcePoint" />
            <mxPoint x="300" y="2820" as="targetPoint" />
          </mxGeometry>
        </mxCell>
        <mxCell id="D4o3qx-jDcPHW6__n_jF-191" value="" style="endArrow=classic;html=1;rounded=0;fontSize=12;startSize=8;endSize=8;curved=1;entryX=0.5;entryY=0;entryDx=0;entryDy=0;" edge="1" parent="1" target="D4o3qx-jDcPHW6__n_jF-178">
          <mxGeometry width="50" height="50" relative="1" as="geometry">
            <mxPoint x="370" y="2750" as="sourcePoint" />
            <mxPoint x="300" y="2820" as="targetPoint" />
          </mxGeometry>
        </mxCell>
        <mxCell id="D4o3qx-jDcPHW6__n_jF-192" value="" style="endArrow=none;html=1;rounded=0;fontSize=12;startSize=8;endSize=8;curved=1;exitX=0.5;exitY=1;exitDx=0;exitDy=0;" edge="1" parent="1" source="D4o3qx-jDcPHW6__n_jF-181">
          <mxGeometry width="50" height="50" relative="1" as="geometry">
            <mxPoint x="250" y="2870" as="sourcePoint" />
            <mxPoint x="160" y="3050" as="targetPoint" />
          </mxGeometry>
        </mxCell>
        <mxCell id="D4o3qx-jDcPHW6__n_jF-193" value="" style="endArrow=none;html=1;rounded=0;fontSize=12;startSize=8;endSize=8;curved=1;exitX=0.5;exitY=1;exitDx=0;exitDy=0;" edge="1" parent="1" source="D4o3qx-jDcPHW6__n_jF-179">
          <mxGeometry width="50" height="50" relative="1" as="geometry">
            <mxPoint x="250" y="2870" as="sourcePoint" />
            <mxPoint x="370" y="3050" as="targetPoint" />
          </mxGeometry>
        </mxCell>
        <mxCell id="D4o3qx-jDcPHW6__n_jF-194" value="" style="endArrow=classic;html=1;rounded=0;fontSize=12;startSize=8;endSize=8;curved=1;entryX=0;entryY=0.5;entryDx=0;entryDy=0;" edge="1" parent="1" target="D4o3qx-jDcPHW6__n_jF-187">
          <mxGeometry width="50" height="50" relative="1" as="geometry">
            <mxPoint x="160" y="3050" as="sourcePoint" />
            <mxPoint x="300" y="2820" as="targetPoint" />
          </mxGeometry>
        </mxCell>
        <mxCell id="D4o3qx-jDcPHW6__n_jF-195" value="" style="endArrow=classic;html=1;rounded=0;fontSize=12;startSize=8;endSize=8;curved=1;" edge="1" parent="1">
          <mxGeometry width="50" height="50" relative="1" as="geometry">
            <mxPoint x="370" y="3050" as="sourcePoint" />
            <mxPoint x="330" y="3050" as="targetPoint" />
          </mxGeometry>
        </mxCell>
        <mxCell id="D4o3qx-jDcPHW6__n_jF-196" value="" style="endArrow=none;html=1;rounded=0;fontSize=12;startSize=8;endSize=8;curved=1;exitX=0.5;exitY=1;exitDx=0;exitDy=0;" edge="1" parent="1" source="D4o3qx-jDcPHW6__n_jF-108">
          <mxGeometry width="50" height="50" relative="1" as="geometry">
            <mxPoint x="250" y="2900" as="sourcePoint" />
            <mxPoint x="-290" y="3040" as="targetPoint" />
          </mxGeometry>
        </mxCell>
        <mxCell id="D4o3qx-jDcPHW6__n_jF-198" value="" style="endArrow=none;html=1;rounded=0;fontSize=12;startSize=8;endSize=8;curved=1;entryX=0;entryY=0.5;entryDx=0;entryDy=0;" edge="1" parent="1" target="D4o3qx-jDcPHW6__n_jF-187">
          <mxGeometry width="50" height="50" relative="1" as="geometry">
            <mxPoint x="-290" y="3040" as="sourcePoint" />
            <mxPoint x="300" y="2850" as="targetPoint" />
          </mxGeometry>
        </mxCell>
        <mxCell id="D4o3qx-jDcPHW6__n_jF-199" value="" style="endArrow=none;html=1;rounded=0;fontSize=12;startSize=8;endSize=8;curved=1;entryX=0.5;entryY=1;entryDx=0;entryDy=0;" edge="1" parent="1" target="D4o3qx-jDcPHW6__n_jF-115">
          <mxGeometry width="50" height="50" relative="1" as="geometry">
            <mxPoint x="-120" y="3040" as="sourcePoint" />
            <mxPoint x="300" y="2850" as="targetPoint" />
          </mxGeometry>
        </mxCell>
        <mxCell id="D4o3qx-jDcPHW6__n_jF-201" value="" style="endArrow=none;html=1;rounded=0;fontSize=12;startSize=8;endSize=8;curved=1;entryX=0;entryY=0.5;entryDx=0;entryDy=0;" edge="1" parent="1" target="D4o3qx-jDcPHW6__n_jF-166">
          <mxGeometry width="50" height="50" relative="1" as="geometry">
            <mxPoint x="10" y="2616" as="sourcePoint" />
            <mxPoint x="300" y="2850" as="targetPoint" />
          </mxGeometry>
        </mxCell>
        <mxCell id="D4o3qx-jDcPHW6__n_jF-202" value="" style="endArrow=none;html=1;rounded=0;fontSize=12;startSize=8;endSize=8;curved=1;" edge="1" parent="1">
          <mxGeometry width="50" height="50" relative="1" as="geometry">
            <mxPoint x="20" y="3040" as="sourcePoint" />
            <mxPoint x="20" y="2610" as="targetPoint" />
          </mxGeometry>
        </mxCell>
        <mxCell id="D4o3qx-jDcPHW6__n_jF-203" value="" style="endArrow=none;html=1;rounded=0;fontSize=12;startSize=8;endSize=8;curved=1;entryX=0.5;entryY=1;entryDx=0;entryDy=0;" edge="1" parent="1" target="D4o3qx-jDcPHW6__n_jF-134">
          <mxGeometry width="50" height="50" relative="1" as="geometry">
            <mxPoint x="800" y="3050" as="sourcePoint" />
            <mxPoint x="300" y="2850" as="targetPoint" />
          </mxGeometry>
        </mxCell>
        <mxCell id="D4o3qx-jDcPHW6__n_jF-204" style="edgeStyle=none;curved=1;rounded=0;orthogonalLoop=1;jettySize=auto;html=1;entryX=1;entryY=0.75;entryDx=0;entryDy=0;fontSize=12;startSize=8;endSize=8;" edge="1" parent="1" source="D4o3qx-jDcPHW6__n_jF-182" target="D4o3qx-jDcPHW6__n_jF-182">
          <mxGeometry relative="1" as="geometry" />
        </mxCell>
        <mxCell id="D4o3qx-jDcPHW6__n_jF-205" value="" style="endArrow=none;html=1;rounded=0;fontSize=12;startSize=8;endSize=8;curved=1;" edge="1" parent="1">
          <mxGeometry width="50" height="50" relative="1" as="geometry">
            <mxPoint x="350" y="3050" as="sourcePoint" />
            <mxPoint x="800" y="3050" as="targetPoint" />
          </mxGeometry>
        </mxCell>
        <mxCell id="D4o3qx-jDcPHW6__n_jF-206" value="" style="endArrow=none;html=1;rounded=0;fontSize=12;startSize=8;endSize=8;curved=1;entryX=0.5;entryY=1;entryDx=0;entryDy=0;" edge="1" parent="1" target="D4o3qx-jDcPHW6__n_jF-129">
          <mxGeometry width="50" height="50" relative="1" as="geometry">
            <mxPoint x="460" y="3050" as="sourcePoint" />
            <mxPoint x="300" y="2850" as="targetPoint" />
          </mxGeometry>
        </mxCell>
        <mxCell id="D4o3qx-jDcPHW6__n_jF-207" value="" style="endArrow=none;html=1;rounded=0;fontSize=12;startSize=8;endSize=8;curved=1;entryX=1;entryY=0.5;entryDx=0;entryDy=0;" edge="1" parent="1" target="D4o3qx-jDcPHW6__n_jF-126">
          <mxGeometry width="50" height="50" relative="1" as="geometry">
            <mxPoint x="700" y="2436" as="sourcePoint" />
            <mxPoint x="300" y="2680" as="targetPoint" />
          </mxGeometry>
        </mxCell>
        <mxCell id="D4o3qx-jDcPHW6__n_jF-208" value="" style="endArrow=none;html=1;rounded=0;fontSize=12;startSize=8;endSize=8;curved=1;" edge="1" parent="1">
          <mxGeometry width="50" height="50" relative="1" as="geometry">
            <mxPoint x="700" y="2340" as="sourcePoint" />
            <mxPoint x="700" y="2440" as="targetPoint" />
          </mxGeometry>
        </mxCell>
        <mxCell id="D4o3qx-jDcPHW6__n_jF-209" value="" style="endArrow=classic;html=1;rounded=0;fontSize=12;startSize=8;endSize=8;curved=1;entryX=1;entryY=0.5;entryDx=0;entryDy=0;" edge="1" parent="1" target="D4o3qx-jDcPHW6__n_jF-124">
          <mxGeometry width="50" height="50" relative="1" as="geometry">
            <mxPoint x="700" y="2346" as="sourcePoint" />
            <mxPoint x="300" y="2680" as="targetPoint" />
          </mxGeometry>
        </mxCell>
        <mxCell id="D4o3qx-jDcPHW6__n_jF-210" value="" style="endArrow=none;html=1;rounded=0;fontSize=12;startSize=8;endSize=8;curved=1;entryX=1;entryY=0.5;entryDx=0;entryDy=0;" edge="1" parent="1" target="D4o3qx-jDcPHW6__n_jF-116">
          <mxGeometry width="50" height="50" relative="1" as="geometry">
            <mxPoint x="1050" y="2436" as="sourcePoint" />
            <mxPoint x="1010" y="2530" as="targetPoint" />
          </mxGeometry>
        </mxCell>
        <mxCell id="D4o3qx-jDcPHW6__n_jF-211" value="" style="endArrow=none;html=1;rounded=0;fontSize=12;startSize=8;endSize=8;curved=1;" edge="1" parent="1">
          <mxGeometry width="50" height="50" relative="1" as="geometry">
            <mxPoint x="1050" y="2350" as="sourcePoint" />
            <mxPoint x="1050" y="2440" as="targetPoint" />
          </mxGeometry>
        </mxCell>
        <mxCell id="D4o3qx-jDcPHW6__n_jF-212" value="" style="endArrow=classic;html=1;rounded=0;fontSize=12;startSize=8;endSize=8;curved=1;entryX=1;entryY=0.5;entryDx=0;entryDy=0;" edge="1" parent="1" target="D4o3qx-jDcPHW6__n_jF-133">
          <mxGeometry width="50" height="50" relative="1" as="geometry">
            <mxPoint x="1050" y="2346" as="sourcePoint" />
            <mxPoint x="850" y="2660" as="targetPoint" />
          </mxGeometry>
        </mxCell>
      </root>
    </mxGraphModel>
  </diagram>
</mxfile>
